<svg xmlns="http://www.w3.org/2000/svg" width="49" height="49" fill="none" fill-rule="evenodd" xmlns:v="https://vecta.io/nano"><path d="M.133.854L.127 48.849l47.995.006L48.127.86.133.854z" fill="#e71324"/><path d="M24.619 36.234c-1.943 0-3.524-1.837-3.524-4.095s1.581-4.095 3.524-4.095 3.524 1.837 3.524 4.095-1.581 4.095-3.524 4.095zm0-9.862c-2.865 0-5.195 2.587-5.195 5.767s2.331 5.767 5.195 5.767 5.195-2.587 5.195-5.767-2.331-5.767-5.195-5.767zm8.37-12.885h1.552v9.002c0 .462.374.836.836.836s.836-.374.836-.836v-9.837c0-.462-.374-.836-.836-.836h-2.388c-.462 0-.836.374-.836.836s.374.836.836.836zm-6.312 7.999c-.14.099-.329.154-.533.154h-4.949c-.462 0-.836.374-.836.836s.374.836.836.836h4.949c.556 0 1.076-.16 1.503-.464.596-.424 1.234-1.324 1.234-2.577 0-2.075-1.486-2.936-2.282-3.104l-1.844-.423-1.74-.399c-.162-.039-.97-.294-.97-1.472 0-.814.477-1.177.531-1.216a.93.93 0 0 1 .534-.154h4.538c.462 0 .836-.374.836-.836s-.374-.836-.836-.836H23.11a2.57 2.57 0 0 0-1.502.464c-.597.424-1.234 1.324-1.234 2.578 0 2.075 1.486 2.936 2.282 3.104l1.844.424 1.735.398.019.004c.039.008.957.211.957 1.469 0 .814-.477 1.177-.531 1.216zM8.812 23.293c.433.159.913-.064 1.072-.498l2.994-8.186 2.994 8.186c.124.339.444.549.785.549a.85.85 0 0 0 .287-.051c.433-.159.657-.638.498-1.072l-3.558-9.728a1.06 1.06 0 0 0-1.006-.698 1.06 1.06 0 0 0-1.006.698l-3.558 9.728c-.159.434.064.913.498 1.072zm8.087 3.115c-.353-.107-.734.03-.938.337l-3.083 4.633-3.083-4.633c-.204-.307-.585-.444-.938-.337s-.594.432-.594.8v9.862c0 .462.374.836.836.836s.836-.374.836-.836v-7.097l2.247 3.377c.155.233.416.373.696.373s.541-.14.696-.373l2.247-3.377v7.097c0 .462.374.836.836.836s.836-.374.836-.836v-9.862c0-.368-.241-.693-.594-.8zm22.544.007c-.434-.159-.913.064-1.072.498l-2.994 8.186-2.994-8.186c-.159-.433-.639-.656-1.072-.498s-.657.639-.498 1.072l3.558 9.729a1.06 1.06 0 0 0 1.006.698 1.06 1.06 0 0 0 1.006-.698l3.558-9.729c.159-.433-.064-.913-.498-1.072z" fill="#fff"/></svg>